<svg xmlns="http://www.w3.org/2000/svg" viewBox="0 0 100 100" width="32" height="32">
  <defs>
    <linearGradient id="dumbbellGradient" x1="0%" y1="0%" x2="100%" y2="100%">
      <stop offset="0%" style="stop-color:#3B82F6;stop-opacity:1" />
      <stop offset="50%" style="stop-color:#1D4ED8;stop-opacity:1" />
      <stop offset="100%" style="stop-color:#1E40AF;stop-opacity:1" />
    </linearGradient>
    <linearGradient id="notebookGradient" x1="0%" y1="0%" x2="100%" y2="100%">
      <stop offset="0%" style="stop-color:#10B981;stop-opacity:1" />
      <stop offset="50%" style="stop-color:#059669;stop-opacity:1" />
      <stop offset="100%" style="stop-color:#047857;stop-opacity:1" />
    </linearGradient>
    <filter id="shadow" x="-20%" y="-20%" width="140%" height="140%">
      <feDropShadow dx="2" dy="2" stdDeviation="3" flood-color="#000000" flood-opacity="0.3"/>
    </filter>
    <filter id="glow" x="-50%" y="-50%" width="200%" height="200%">
      <feGaussianBlur stdDeviation="2" result="coloredBlur"/>
      <feMerge> 
        <feMergeNode in="coloredBlur"/>
        <feMergeNode in="SourceGraphic"/>
      </feMerge>
    </filter>
  </defs>
  
  <!-- 背景の円形 -->
  <circle cx="50" cy="50" r="45" fill="url(#dumbbellGradient)" filter="url(#shadow)"/>
  
  <!-- ノートの背景 -->
  <rect x="20" y="25" width="60" height="50" rx="8" fill="url(#notebookGradient)" filter="url(#shadow)"/>
  
  <!-- ノートのリング -->
  <circle cx="50" cy="30" r="8" fill="#FFFFFF" opacity="0.9"/>
  <circle cx="50" cy="30" r="6" fill="none" stroke="#1E40AF" stroke-width="1"/>
  
  <!-- ノートの線 -->
  <line x1="25" y1="45" x2="75" y2="45" stroke="#FFFFFF" stroke-width="1" opacity="0.7"/>
  <line x1="25" y1="52" x2="75" y2="52" stroke="#FFFFFF" stroke-width="1" opacity="0.7"/>
  <line x1="25" y1="59" x2="65" y2="59" stroke="#FFFFFF" stroke-width="1" opacity="0.7"/>
  
  <!-- ダンベルの左側の重り（ノートの上に重ねる） -->
  <circle cx="30" cy="65" r="12" fill="url(#dumbbellGradient)" filter="url(#shadow)"/>
  <circle cx="30" cy="65" r="9" fill="none" stroke="#FFFFFF" stroke-width="2" opacity="0.8"/>
  
  <!-- ダンベルの右側の重り -->
  <circle cx="70" cy="65" r="12" fill="url(#dumbbellGradient)" filter="url(#shadow)"/>
  <circle cx="70" cy="65" r="9" fill="none" stroke="#FFFFFF" stroke-width="2" opacity="0.8"/>
  
  <!-- ダンベルのバー -->
  <rect x="38" y="63" width="24" height="4" fill="url(#dumbbellGradient)" filter="url(#shadow)"/>
  <rect x="38" y="63" width="24" height="4" fill="none" stroke="#FFFFFF" stroke-width="1" opacity="0.6"/>
  
  <!-- ハンドル部分のハイライト -->
  <rect x="45" y="61" width="10" height="8" fill="none" stroke="#FFFFFF" stroke-width="1" opacity="0.4"/>
  
  <!-- 重りのハイライト -->
  <circle cx="27" cy="62" r="3" fill="#FFFFFF" opacity="0.4"/>
  <circle cx="67" cy="62" r="3" fill="#FFFFFF" opacity="0.4"/>
  
  <!-- ノートの角の折り返し -->
  <path d="M 75 25 L 85 15 L 85 35 L 75 35 Z" fill="#FFFFFF" opacity="0.3"/>
  
  <!-- 全体的なグロー効果 -->
  <circle cx="50" cy="50" r="45" fill="none" stroke="#3B82F6" stroke-width="1" opacity="0.5" filter="url(#glow)"/>
</svg> 